# xmcd CD database file
#
# Track frame offsets:
#	150
#	22330
#	45907
#	68112
#
# Disc length: 1220 seconds
#
# Revision: 0
# Processed by: cddbd v1.5.1PL0 Copyright (c) Steve Scherf et al.
# Submitted via: CDex 1.51
#
DISCID=2e04c204
DTITLE=西脇唯 - 思い出が降る街で
DYEAR=1994
DGENRE=JPop
TTITLE0=思い出が降る街で
TTITLE1=気持ちをちょっと＃にして
TTITLE2=思い出が降る街で(カラオケ)
TTITLE3=気持ちをちょっと＃にして(カラオケ)
EXTD=YEAR: 1994
EXTT0=
EXTT1=
EXTT2=
EXTT3=
PLAYORDER=
